<?xml version="1.0" encoding="utf-8"?>
<!-- Generator: Adobe Illustrator 16.0.0, SVG Export Plug-In . SVG Version: 6.00 Build 0)  -->
<!DOCTYPE svg PUBLIC "-//W3C//DTD SVG 1.1//EN" "http://www.w3.org/Graphics/SVG/1.1/DTD/svg11.dtd">
<svg version="1.1" xmlns="http://www.w3.org/2000/svg" xmlns:xlink="http://www.w3.org/1999/xlink" x="0px" y="0px" width="32px"
	 height="32px" viewBox="0 0 32 32" style="enable-background:new 0 0 32 32;" xml:space="preserve">
<style type="text/css">
<![CDATA[
	.st0{display:inline;fill:#4D4D4D;}
	.st1{clip-path:url(#SVGID_1_);fill:#FFFFFF;}
	.st2{display:inline;fill:#ED1C24;}
	.st3{fill:#FFFFFF;}
	.st4{display:inline;}
	.st5{fill-rule:evenodd;clip-rule:evenodd;fill:#FFFFFF;}
	.st6{display:none;}
]]>
</style>
<g id="Layer_3" class="st6">
	<rect x="-53.7" y="-27.5" class="st0" width="136.5" height="77"/>
	<rect x="-67.3" y="-37.4" class="st2" width="160.3" height="97.4"/>
</g>
<g id="skype">
	<path class="st3" d="M27.9,18c0,0.1,0,0.1,0,0.2V18C27.8,17.9,27.8,17.9,27.9,18c0.2-0.7,0.2-1.5,0.2-2.1c0-1.6-0.3-3.2-0.9-4.6
		c-0.6-1.5-1.5-2.7-2.6-3.8c-1.1-1.1-2.4-2-3.8-2.6C19.3,4.3,17.7,4,16.2,4c-0.8,0-1.5,0.1-2.3,0.2l0,0c0,0,0.1,0,0.1,0.1h-0.3h0.1
		c-1-0.5-2.1-0.9-3.3-0.9c-1.9,0-3.7,0.8-5,2.1c-1.4,1.4-2.1,3.1-2.1,5c0,1.2,0.3,2.4,0.9,3.4c0-0.1,0-0.1,0-0.2L4.3,14
		c0,0,0-0.1-0.1-0.1C4.1,14.6,4,15.3,4,16c0,1.6,0.3,3.2,0.9,4.6c0.6,1.5,1.5,2.7,2.6,3.8c1.1,1.1,2.4,2,3.8,2.6
		c1.5,0.6,3.1,0.9,4.6,0.9c0.7,0,1.4-0.1,2.1-0.2L18,27.6l0.3,0.1c-0.1,0-0.1,0-0.2,0c1,0.6,2.2,0.9,3.5,0.9c1.9,0,3.7-0.8,5-2.1
		c1.4-1.4,2.1-3.1,2.1-5C28.7,20.2,28.5,19,27.9,18z M16.2,23.1c-4.3,0-6.2-2.1-6.2-3.7c0-0.8,0.6-1.4,1.5-1.4
		c1.8,0,1.4,2.7,4.7,2.7c1.7,0,2.7-0.9,2.7-1.9c0-0.6-0.3-1.2-1.5-1.5l-3.8-0.9C10.5,15.6,10,14,10,12.4C10,9.2,13,8,15.9,8
		c2.7,0,5.7,1.5,5.7,3.3c0,0.9-0.7,1.3-1.5,1.3c-1.5,0-1.3-2.1-4.4-2.1c-1.5,0-2.4,0.7-2.4,1.7c0,1,1.2,1.3,2.3,1.5l2.8,0.6
		c3.1,0.7,3.9,2.5,3.9,4.2C22.2,21.2,20.2,23.1,16.2,23.1z"/>
</g>
<g id="linked_x5F_in" class="st6">
	<g class="st4">
		<path class="st5" d="M5.7,3.5C7.4,3.5,8.3,4,8.9,5C9,5.2,9.1,5.5,9.2,5.8c0.4,1.9-1,3.2-2.4,3.5C5,9.6,3.6,8.7,3.1,7.5
			c-0.3-0.6-0.3-1.6,0-2.3C3.4,4.5,4,4,4.8,3.7c0.2,0,0.3-0.1,0.5-0.1C5.4,3.5,5.6,3.5,5.7,3.5z"/>
		<path class="st5" d="M29.1,28.5c-1.9,0-3.8,0-5.6,0c0-2.2,0-4.5,0-6.7c0-2.2,0.2-4.5-1-5.5c-0.4-0.4-0.9-0.5-1.6-0.6
			c-1-0.2-2,0.5-2.4,1c-0.3,0.4-0.6,0.8-0.7,1.3c-0.1,0.4-0.1,0.9-0.1,1.4c0,0.6,0,1.2,0,1.8c0,2.4,0,4.9,0,7.3c-1.9,0-3.8,0-5.6,0
			c0-2.3,0-14.6,0-16.9c1.9,0,3.8,0,5.6,0c0,0.8,0,1.6,0,2.4c0,0,0,0,0,0c0.2-0.3,0.4-0.6,0.6-0.8c0.5-0.6,1.2-1.1,1.9-1.4
			c0.6-0.3,1.2-0.3,2-0.5c0.2,0,0.5,0,0.7,0c0.3,0.1,0.6,0,0.9,0.1c1,0.2,1.7,0.4,2.4,0.9c1.4,0.9,2.3,2.3,2.7,4.2
			c0.3,1.3,0.2,3.1,0.2,4.7C29.1,23.5,29.1,26,29.1,28.5z"/>
		<path class="st5" d="M3.2,11.6c1.9,0,3.8,0,5.6,0c0,5.6,0,11.3,0,16.9c-1.9,0-3.8,0-5.6,0C3.2,22.9,3.2,17.3,3.2,11.6z"/>
		<path class="st5" d="M17.5,14.1C17.5,14.1,17.5,14.1,17.5,14.1C17.5,14.1,17.6,14.1,17.5,14.1C17.6,14.1,17.6,14.1,17.5,14.1z"/>
	</g>
</g>
<g id="instagram" class="st6">
	<g class="st4">
		<g>
			<defs>
				<rect id="SVGID_3_" x="3.5" y="3.5" width="25" height="25"/>
			</defs>
			<clipPath id="SVGID_1_">
				<use xlink:href="#SVGID_3_"  style="overflow:visible;"/>
			</clipPath>
			<path class="st1" d="M25.7,14.1h-2.2c0.2,0.6,0.3,1.3,0.3,1.9c0,4.2-3.5,7.7-7.7,7.7S8.3,20.2,8.3,16c0-0.7,0.1-1.3,0.3-1.9H6.4
				v10.6c0,0.5,0.4,1,1,1h17.3c0.5,0,1-0.4,1-1V14.1z M25.7,7.3c0-0.5-0.4-1-1-1h-2.9c-0.5,0-1,0.4-1,1v2.9c0,0.5,0.4,1,1,1h2.9
				c0.5,0,1-0.4,1-1V7.3z M16,11.2c-2.7,0-4.8,2.2-4.8,4.8s2.2,4.8,4.8,4.8s4.8-2.2,4.8-4.8S18.6,11.2,16,11.2 M25.7,28.5H6.4
				c-1.6,0-2.9-1.3-2.9-2.9V6.3c0-1.6,1.3-2.9,2.9-2.9h19.2c1.6,0,2.9,1.3,2.9,2.9v19.2C28.5,27.2,27.2,28.5,25.7,28.5"/>
		</g>
	</g>
</g>
</svg>
